<?xml version="1.0" encoding="iso-8859-1"?>
<!-- Generator: Adobe Illustrator 17.1.0, SVG Export Plug-In . SVG Version: 6.00 Build 0)  -->
<!DOCTYPE svg PUBLIC "-//W3C//DTD SVG 1.1//EN" "http://www.w3.org/Graphics/SVG/1.1/DTD/svg11.dtd">
<svg version="1.1" id="Capa_1" xmlns="http://www.w3.org/2000/svg" xmlns:xlink="http://www.w3.org/1999/xlink" x="0px" y="0px"
	 viewBox="0 0 205.904 205.904" style="enable-background:new 0 0 205.904 205.904;" xml:space="preserve">
<path d="M169.086,162.604c-20.301,0-36.817-16.517-36.817-36.818c0-13.809,7.641-25.865,18.917-32.165
	c-0.168-2.428-0.161-4.137-0.151-4.722l-0.927-7.325l-45.445,41.658c1.035,1.761,1.629,3.812,1.629,5.998
	c0,5.688-4.022,10.456-9.373,11.607v5.958h3.22c1.381,0,2.5,1.119,2.5,2.5s-1.119,2.5-2.5,2.5H89.402c-1.381,0-2.5-1.119-2.5-2.5
	s1.119-2.5,2.5-2.5h2.517v-5.958c-4.791-1.031-8.517-4.962-9.244-9.857l-9.326-0.599c-2.269,18.141-17.787,32.223-36.532,32.223
	C16.516,162.604,0,146.088,0,125.786c0-20.301,16.516-36.817,36.817-36.817c7.61,0,14.688,2.32,20.563,6.292l14.661-18.734
	l-1.578-4.135c-0.221-0.035-0.434-0.072-0.635-0.111c-5.282-1.023-9.315-3.5-12.329-7.571c0,0,0,0,0,0
	c-2.186-2.954-2.795-5.628-1.81-7.945c0.981-2.309,3.055-3.781,5.691-4.041c4.014-0.389,8.601,1.97,11.177,5.749
	c1.129,1.656,6.718,2.281,10.416,2.695c5.724,0.64,10.667,1.192,10.667,5.293c0,6.508-7.109,6.522-10.929,6.531l-0.601,0.002
	c-0.777,0.003-3.347,0.005-6.11-0.118l0.603,1.58h72.604l-0.039-0.303c-0.004-0.036-0.008-0.073-0.011-0.109l-1.258-15.365
	c-0.031-0.227-1.065-7.641-10.196-8.996c-5.561-0.825-9.818-1.402-9.825-1.403c-1.369-0.186-2.327-1.445-2.142-2.813
	c0.186-1.368,1.448-2.329,2.813-2.142c0,0,4.288,0.581,9.889,1.413c10.418,1.546,14,9.483,14.438,13.464l1.261,15.38l1.882,14.875
	c0.016,0.127,0.022,0.257,0.019,0.385c-0.001,0.033-0.022,0.957,0.041,2.502c4.046-1.533,8.432-2.373,13.009-2.373
	c20.301,0,36.818,16.517,36.818,36.817C205.904,146.088,189.388,162.604,169.086,162.604z M151.777,99.1
	c-8.726,5.681-14.508,15.521-14.508,26.687c0,17.545,14.273,31.818,31.817,31.818c17.544,0,31.818-14.273,31.818-31.818
	c0-17.544-14.273-31.817-31.818-31.817c-4.468,0-8.726,0.927-12.588,2.597c0.537,4.514,1.686,10.378,4.13,15.833
	c4.726,10.546,9.711,13.754,9.761,13.784c1.162,0.728,1.533,2.261,0.819,3.431c-0.715,1.169-2.227,1.551-3.403,0.85
	c-0.254-0.151-6.289-3.854-11.74-16.02C153.706,109.176,152.446,103.666,151.777,99.1z M36.817,93.969
	C19.273,93.969,5,108.242,5,125.786c0,17.545,14.273,31.818,31.817,31.818c16.095,0,29.438-12.012,31.531-27.544l-31.646-2.031
	c-0.925-0.06-1.742-0.627-2.121-1.473c-0.379-0.847-0.259-1.833,0.313-2.563l19.397-24.785
	C49.273,95.897,43.266,93.969,36.817,93.969z M87.55,128.99c-0.002,0.08-0.004,0.16-0.004,0.24c0,2.908,1.815,5.399,4.373,6.401
	v-6.401c0-1.381,1.119-2.5,2.5-2.5s2.5,1.119,2.5,2.5v6.401c2.557-1.002,4.373-3.493,4.373-6.401c0-1.727-0.64-3.306-1.694-4.515
	c-0.041-0.039-0.081-0.079-0.12-0.122c-0.517-0.563-1.105-1.028-1.748-1.385c-0.982-0.543-2.111-0.852-3.311-0.852
	c-0.005-0.001-0.011-0.001-0.017,0c-0.001,0-0.001,0-0.002,0c-0.803,0.002-1.604,0.151-2.381,0.442
	c-0.002,0.001-0.003,0.002-0.005,0.002c-2.527,0.946-4.271,3.296-4.441,5.986C87.567,128.856,87.56,128.924,87.55,128.99z
	 M73.633,125.39l9.363,0.602c0.799-2.815,2.613-5.207,5.019-6.755L74.101,82.009L61.325,98.333
	C68.783,104.998,73.519,114.651,73.633,125.39z M41.752,123.343l26.875,1.726c-0.201-9.015-4.169-17.117-10.39-22.79L41.752,123.343
	z M94.469,117.357c2.536,0.011,4.887,0.82,6.813,2.189l43.737-40.092H78.485l14.212,38.027c0.546-0.08,1.104-0.122,1.671-0.125
	c0.003-0.002,0.01,0,0.016,0c0.005-0.001,0.011-0.001,0.017,0c0.006,0,0.012,0,0.018,0l0,0c0.007,0,0.026,0.003,0.02,0
	c0.008,0.001,0.017,0.001,0.024,0C94.465,117.357,94.467,117.357,94.469,117.357z M61.519,61.734
	c2.266,3.061,5.209,4.852,9.262,5.638c2.356,0.457,7.376,0.642,11.305,0.621l0.615-0.002c3.874-0.009,5.299-0.3,5.753-0.898
	c-1.291-0.427-4.083-0.738-6.037-0.957c-5.688-0.636-11.569-1.294-13.992-4.848c-1.693-2.484-4.656-3.775-6.555-3.59
	c-1.06,0.104-1.401,0.601-1.58,1.021C60.122,59.116,60.342,60.145,61.519,61.734L61.519,61.734z"/>
<g>
</g>
<g>
</g>
<g>
</g>
<g>
</g>
<g>
</g>
<g>
</g>
<g>
</g>
<g>
</g>
<g>
</g>
<g>
</g>
<g>
</g>
<g>
</g>
<g>
</g>
<g>
</g>
<g>
</g>
</svg>
